<?xml version="1.0" encoding="utf-8"?>
<!-- Generator: Adobe Illustrator 25.0.1, SVG Export Plug-In . SVG Version: 6.00 Build 0)  -->
<svg version="1.1" id="Capa_1" xmlns="http://www.w3.org/2000/svg" xmlns:xlink="http://www.w3.org/1999/xlink" x="0px" y="0px"
	 viewBox="0 0 1920 1920" style="enable-background:new 0 0 1920 1920;" xml:space="preserve">
<style type="text/css">
	.st0{fill:none;}
	.st1{clip-path:url(#SVGID_2_);}
	.st2{fill:#FFFFFF;}
	.st3{fill:none;stroke:#FFFFFF;stroke-width:114.9074;stroke-linecap:round;stroke-miterlimit:10;}
</style>
<circle class="st0" cx="959.75" cy="960.37" r="915.26"/>
<g>
	<defs>
		<circle id="SVGID_1_" cx="960.01" cy="959.99" r="915.26"/>
	</defs>
	<clipPath id="SVGID_2_">
		<use xlink:href="#SVGID_1_"  style="overflow:visible;"/>
	</clipPath>
	<g class="st1">
		<path class="st2" d="M1322.85,1354.41c-266.93,36.73-476.94-93.02-579.79-336.76c-100.11-237.24,20.4-548.43,266.56-658.08
			c72.48-32.28,150.22-55.1,224.55-49.7c-153.72-61.26-329.61-68.55-497.38-7.62C373.76,434.11,186.35,835.29,318.2,1198.33
			c131.85,363.03,533.03,550.45,896.06,418.6c214.9-78.05,368.24-250.48,430.26-453.5
			C1610.97,1228.59,1463.24,1335.09,1322.85,1354.41z"/>
		<line class="st3" x1="1304.49" y1="1556.89" x2="1410.48" y2="1794.74"/>
		<line class="st3" x1="645.82" y1="78.66" x2="758.55" y2="331.64"/>
		<line class="st3" x1="1054.65" y1="1642.16" x2="1164.61" y2="1888.92"/>
		<line class="st3" x1="397.44" y1="167.21" x2="537.38" y2="481.26"/>
	</g>
</g>
</svg>
